<?xml version="1.0" encoding="UTF-8" standalone="no"?>
<svg
   xmlns:dc="http://purl.org/dc/elements/1.1/"
   xmlns:cc="http://creativecommons.org/ns#"
   xmlns:rdf="http://www.w3.org/1999/02/22-rdf-syntax-ns#"
   xmlns:svg="http://www.w3.org/2000/svg"
   xmlns="http://www.w3.org/2000/svg"
   id="svg8"
   version="1.1"
   viewBox="0 0 40.481251 26.722918"
   height="101"
   width="153">
  <defs
     id="defs2" />
  <metadata
     id="metadata5">
    <rdf:RDF>
      <cc:Work
         rdf:about="">
        <dc:format>image/svg+xml</dc:format>
        <dc:type
           rdf:resource="http://purl.org/dc/dcmitype/StillImage" />
        <dc:title></dc:title>
      </cc:Work>
    </rdf:RDF>
  </metadata>
  <g
     transform="translate(0,-270.27708)"
     id="layer1">
    <g
       id="flowRoot834"
       style="font-style:normal;font-variant:normal;font-weight:normal;font-stretch:normal;font-size:40px;line-height:125%;font-family:'Noto Sans CJK JP';-inkscape-font-specification:'Noto Sans CJK JP, Normal';font-variant-ligatures:normal;font-variant-caps:normal;font-variant-numeric:normal;text-align:start;letter-spacing:0px;word-spacing:0px;writing-mode:lr-tb;text-anchor:start;fill:#000000;fill-opacity:1;stroke:none;stroke-width:1px;stroke-linecap:butt;stroke-linejoin:miter;stroke-opacity:1"
       transform="matrix(0.26458333,0,0,0.26458333,1.7305371,270.8828)"
       aria-label="k-kaz">
      <path
         id="path1006"
         style="font-style:normal;font-variant:normal;font-weight:bold;font-stretch:normal;font-size:42.66666794px;font-family:'Noto Sans CJK JP';-inkscape-font-specification:'Noto Sans CJK JP, Bold';font-variant-ligatures:normal;font-variant-caps:normal;font-variant-numeric:normal;font-feature-settings:normal;text-align:start;writing-mode:lr-tb;text-anchor:start"
         d="m 17.007386,64.935991 h 6.101333 v -5.973334 l 3.456,-3.925333 5.802667,9.898667 h 6.784 L 30.106053,50.813324 38.383386,41.042657 H 31.556719 L 23.279386,51.36799 h -0.170667 v -20.48 h -6.101333 z" />
      <path
         id="path1008"
         style="font-style:normal;font-variant:normal;font-weight:bold;font-stretch:normal;font-size:42.66666794px;font-family:'Noto Sans CJK JP';-inkscape-font-specification:'Noto Sans CJK JP, Bold';font-variant-ligatures:normal;font-variant-caps:normal;font-variant-numeric:normal;font-feature-settings:normal;text-align:start;writing-mode:lr-tb;text-anchor:start"
         d="M 38.060719,54.951991 H 49.70872 V 50.47199 H 38.060719 Z" />
      <path
         id="path1010"
         style="font-style:normal;font-variant:normal;font-weight:bold;font-stretch:normal;font-size:42.66666794px;font-family:'Noto Sans CJK JP';-inkscape-font-specification:'Noto Sans CJK JP, Bold';font-variant-ligatures:normal;font-variant-caps:normal;font-variant-numeric:normal;font-feature-settings:normal;text-align:start;writing-mode:lr-tb;text-anchor:start"
         d="m 55.090721,64.935991 h 6.101334 v -5.973334 l 3.456,-3.925333 5.802667,9.898667 h 6.784 L 68.189388,50.813324 76.466722,41.042657 H 69.640055 L 61.362722,51.36799 h -0.170667 v -20.48 h -6.101334 z" />
      <path
         id="path1012"
         style="font-style:normal;font-variant:normal;font-weight:bold;font-stretch:normal;font-size:42.66666794px;font-family:'Noto Sans CJK JP';-inkscape-font-specification:'Noto Sans CJK JP, Bold';font-variant-ligatures:normal;font-variant-caps:normal;font-variant-numeric:normal;font-feature-settings:normal;text-align:start;writing-mode:lr-tb;text-anchor:start"
         d="m 86.312054,65.533324 c 2.730666,0 5.12,-1.365333 7.210667,-3.157333 h 0.128 l 0.469333,2.56 h 5.12 V 50.98399 c 0,-6.912 -3.114667,-10.538667 -9.173334,-10.538667 -3.754666,0 -7.168,1.408 -9.984,3.157334 l 2.261334,4.138667 c 2.218666,-1.28 4.352,-2.261334 6.570666,-2.261334 2.944,0 3.968,1.792 4.053334,4.138667 -9.6,1.024 -13.738667,3.712 -13.738667,8.832 0,4.053334 2.816,7.082667 7.082667,7.082667 z m 2.048,-4.906667 c -1.834667,0 -3.157334,-0.810666 -3.157334,-2.688 0,-2.133333 1.962667,-3.712 7.765334,-4.48 v 4.821334 c -1.493334,1.493333 -2.816,2.346666 -4.608,2.346666 z" />
      <path
         id="path1014"
         style="font-style:normal;font-variant:normal;font-weight:bold;font-stretch:normal;font-size:42.66666794px;font-family:'Noto Sans CJK JP';-inkscape-font-specification:'Noto Sans CJK JP, Bold';font-variant-ligatures:normal;font-variant-caps:normal;font-variant-numeric:normal;font-feature-settings:normal;text-align:start;writing-mode:lr-tb;text-anchor:start"
         d="m 104.05272,64.935991 h 18.85867 v -4.949334 h -11.05067 l 10.70934,-15.573333 v -3.370667 h -17.32267 v 4.949333 h 9.472 l -10.66667,15.573334 z" />
    </g>
  </g>
</svg>
