<svg xmlns="http://www.w3.org/2000/svg" viewBox="0 0 278.18 91.25"><g id="レイヤー_2" data-name="レイヤー 2"><g id="レイヤー_1-2" data-name="レイヤー 1"><path d="M55.46,37.8c1.8,2,1.2,3.75-1.2,6.45-1.2,1.2-2.25,1.2-4,1.2-7.8.15-16.5,9-19.65,12.15-1.8,2.1-2.25,3.3-1,5.7,3.6,8.55,10.8,18.6,15.45,18.6,3.45,0,6.3-2.4,8.4-5.7,1.8-2.7,4-2.4,4.5.6.15,2.85-1.8,5.7-3.75,8a18.38,18.38,0,0,1-13.35,6.45c-3.45,0-8.25-3-12.9-9.9-1.65-2.55-4-6.15-6.45-10-1.65-2.85-3.15-2.7-5.1-.45-3.3,4-4,7.2-5,12.6C10.61,88,5.36,90,3.56,90A3.56,3.56,0,0,1,.11,86.4c-.3-1.8,0-4.5,1-8.7C2.46,71.25,6.36,55.8,13.71,35c5.75-16.35,10.4-26.7,13.1-30.9,2-2.7,3.6-4,6-4a6.5,6.5,0,0,1,5.1,2.25c1.35,1.35,2,2.85.3,5.1C29.66,19.5,19.91,48,17.21,58.8c-.3,1.35.15,1.8,1.5.3,2.1-2.25,11.7-11.85,20.7-18.15,5.4-3.6,8.55-5,11.7-5C53.21,36,54.41,36.45,55.46,37.8Z"/><path d="M86.66,66.3c-6.75,1.8-14.1,3.9-18.45,5.1-1.8.6-3.3.45-3.9-.3-.9-.9-.45-3,.45-4.8,1.8-3.45,4.95-5.25,9.9-6.45,2-.6,17.1-4.35,19.2-4.35,1.35,0,2.4.45,2.4,1.5C96.26,60.9,91.76,65,86.66,66.3Z"/><path d="M154.91,37.8c1.65,2,1,3.75-1.35,6.45-1,1.2-2.25,1.2-3.9,1.2-8,.15-16.65,9-19.65,12.15-2,2.1-2.4,3.3-1.2,5.7,3.6,8.55,11,18.6,15.45,18.6,6.45,0,15-11.1,20.1-17.7,1.2-1.5,2.7-1.5,3.3-.3.6,1.35-.15,3.45-1.5,6-7.5,14.25-18.9,21.3-26,21.3-3.6,0-8.4-3-12.9-9.9-1.8-2.55-4.2-6.15-6.6-10-1.65-2.85-3.15-2.7-5.1-.45-3.3,4-4,7.2-5,12.6-.75,4.5-6,6.45-7.8,6.45a3.56,3.56,0,0,1-3.45-3.45c-.3-1.8,0-4.5,1-8.7,1.35-6.45,5.4-21.9,12.6-42.75,5.7-16.35,10.35-26.7,13.2-30.9,1.8-2.7,3.45-4,6-4a6.44,6.44,0,0,1,5,2.25c1.35,1.35,2.1,2.85.45,5.1-8.6,12.1-18.35,40.6-21,51.4-.3,1.35.15,1.8,1.5.3,2.1-2.25,11.7-11.85,20.7-18.15,5.4-3.6,8.55-5,11.7-5A5.23,5.23,0,0,1,154.91,37.8Z"/><path d="M199.6,39.15c.3.75,1,.9,1.8.3,1.2-.9,2.1-1.2,3.3-.3,3.45,2,2.85,3.6,2.4,4.8-4.2,9.45-6.9,18.6-6.9,27.45,0,5.7,1.2,8.85,4,8.85,3.15,0,7.05-3.45,10.05-7,2.1-2.55,3.9-2.25,4.05-.3a12.94,12.94,0,0,1-2.55,7.8c-3.9,5.85-10.8,9.75-15.75,9.75-4.35,0-9.14-4.8-9.75-11a63.23,63.23,0,0,1-.44-6.6c-.15-1.2-.45-1.2-1.2-.3-2,2.25-10.05,10.35-14.25,13.35-3.9,3.15-6.9,4.5-9.75,4.5-1.65,0-7.2-2.7-7.2-8.4,0-2.7.9-7.5,5.7-16.65a76.61,76.61,0,0,1,17.1-22c7.55-6.8,13.24-7.4,14.9-7.4C197.05,36,198.7,38,199.6,39.15Zm-18.14,14.1c-5.85,6.9-10,15.9-11.1,20.4-.6,2.4-.3,4.5,1.2,4.5,1.2,0,3.6-1.5,6-3.75,2.55-2.25,5.4-5.85,9.9-11.4a85.78,85.78,0,0,0,5.24-8.55,8.82,8.82,0,0,0,.91-5.1c-.45-1.2-1.66-3.15-3.6-3.15C188.51,46.2,185.66,48.3,181.46,53.25Z"/><path d="M274.45,75.15c1.5-2.55,3.45-2.25,3.45,1,0,5.1-5.1,15-17.25,15-7.8,0-14.25-3.75-21.6-8.85-1.65-1.2-2.85-.6-4.05,1-1.35,1.35-5.09,4.5-6.9,6a4,4,0,0,1-4.65.15,3.85,3.85,0,0,1-1.34-2.7c0-2.55,4-7.65,5.25-9a3.62,3.62,0,0,0,.89-2.85c0-5.4,3.3-8.1,5.4-8.1a4.85,4.85,0,0,1,2.85.75,1.74,1.74,0,0,0,2.46-.18l.09-.12c5.4-5.55,11.1-11.85,15.9-16.8,1.5-1.5,1.2-2.1-.6-2.25-6.15-.6-10.5-1-12.3-1a3.39,3.39,0,0,0-3.3,2.1c-.9,1.65-1.05,3.9.3,7.2.75,2.1-.9,2.4-2.85,1.35s-4.95-5-6-6.75a5.85,5.85,0,0,1,.3-7.2c3.3-3.9,5.1-5.7,9.9-5.7,3.6,0,7.2.6,14.25,1.5a56.54,56.54,0,0,0,7.8.6,7.27,7.27,0,0,0,4.05-1A5.6,5.6,0,0,1,270.1,38a9.4,9.4,0,0,1,7,3.45c2.1,2.55.6,4.65-.3,6S275,49.65,274,49.65c-.6,0-1.95-.3-2.7-.3-1.5,0-3.75,1-6.45,3.75-2.1,2.1-12.9,13.5-17.55,18.9-1.2,1.35-1.8,2.4-.9,3.15,2.7,2.55,9.75,6.9,15.6,6.9S271.45,80.25,274.45,75.15Z"/></g></g></svg>