<svg id="レイヤー_1" data-name="レイヤー 1" xmlns="http://www.w3.org/2000/svg" viewBox="0 0 350 140"><defs><style>.cls-1{fill:#fff;}.cls-2{fill:#000;}</style></defs><rect class="cls-1" x="-79.54" y="-40.72" width="516.88" height="231.16"/><path class="cls-2" d="M91.35,62.2c1.8,2,1.2,3.75-1.2,6.45-1.2,1.2-2.25,1.2-4.05,1.2-7.8.15-16.5,9-19.65,12.15-1.8,2.1-2.25,3.3-1,5.7,3.6,8.55,10.8,18.6,15.45,18.6,3.45,0,6.3-2.4,8.4-5.7,1.8-2.7,4-2.4,4.5.6.15,2.85-1.8,5.7-3.75,8a18.41,18.41,0,0,1-13.35,6.45c-3.45,0-8.25-3-12.9-9.9-1.65-2.55-4-6.15-6.45-10-1.65-2.85-3.15-2.7-5.1-.45-3.3,4-4.05,7.2-5,12.6-.75,4.5-6,6.45-7.8,6.45A3.56,3.56,0,0,1,36,110.8c-.3-1.8,0-4.5,1-8.7,1.35-6.45,5.25-21.9,12.6-42.75C55.35,43,60,32.65,62.7,28.45c2-2.7,3.6-4.05,6-4.05a6.5,6.5,0,0,1,5.1,2.25c1.35,1.35,2,2.85.3,5.1C65.55,43.9,55.8,72.4,53.1,83.2c-.3,1.35.15,1.8,1.5.3,2.1-2.25,11.7-11.85,20.7-18.15,5.4-3.6,8.55-4.95,11.7-4.95C89.1,60.4,90.3,60.85,91.35,62.2Z"/><path class="cls-2" d="M122.55,90.7c-6.75,1.8-14.1,3.9-18.45,5.1-1.8.6-3.3.45-3.9-.3-.9-.9-.45-3,.45-4.8,1.8-3.45,4.95-5.25,9.9-6.45,2-.6,17.1-4.35,19.2-4.35,1.35,0,2.4.45,2.4,1.5C132.15,85.3,127.65,89.35,122.55,90.7Z"/><path class="cls-2" d="M190.8,62.2c1.65,2,1,3.75-1.35,6.45-1,1.2-2.25,1.2-3.9,1.2-8,.15-16.65,9-19.65,12.15-2,2.1-2.4,3.3-1.2,5.7,3.6,8.55,11,18.6,15.45,18.6,6.45,0,15-11.1,20.1-17.7,1.2-1.5,2.7-1.5,3.3-.3.6,1.35-.15,3.45-1.5,6-7.5,14.25-18.9,21.3-26,21.3-3.6,0-8.4-3-12.9-9.9-1.8-2.55-4.2-6.15-6.6-10-1.65-2.85-3.15-2.7-5.1-.45-3.3,4-4.05,7.2-4.95,12.6-.75,4.5-6,6.45-7.8,6.45a3.56,3.56,0,0,1-3.45-3.45c-.3-1.8,0-4.5,1-8.7,1.35-6.45,5.4-21.9,12.6-42.75,5.7-16.35,10.35-26.7,13.2-30.9,1.8-2.7,3.45-4.05,6-4.05a6.41,6.41,0,0,1,4.95,2.25c1.35,1.35,2.1,2.85.45,5.1C164.85,43.9,155.1,72.4,152.4,83.2c-.3,1.35.15,1.8,1.5.3,2.1-2.25,11.7-11.85,20.7-18.15,5.4-3.6,8.55-4.95,11.7-4.95A5.22,5.22,0,0,1,190.8,62.2Z"/><path class="cls-2" d="M235.49,63.55c.3.75,1,.9,1.8.3,1.2-.9,2.1-1.2,3.3-.3,3.45,2,2.85,3.6,2.4,4.8-4.2,9.45-6.9,18.6-6.9,27.45,0,5.7,1.2,8.85,4,8.85,3.15,0,7.05-3.45,10.05-7.05,2.1-2.55,3.9-2.25,4.05-.3a13,13,0,0,1-2.55,7.8c-3.9,5.85-10.8,9.75-15.75,9.75-4.35,0-9.14-4.8-9.75-10.95a62.91,62.91,0,0,1-.44-6.6c-.15-1.2-.45-1.2-1.2-.3-2,2.25-10.05,10.35-14.25,13.35-3.9,3.15-6.9,4.5-9.75,4.5-1.65,0-7.2-2.7-7.2-8.4,0-2.7.9-7.5,5.7-16.65a76.52,76.52,0,0,1,17.1-22C223.65,61,229.34,60.4,231,60.4,232.94,60.4,234.59,62.35,235.49,63.55Zm-18.14,14.1c-5.85,6.9-10,15.9-11.1,20.4-.6,2.4-.3,4.5,1.2,4.5,1.2,0,3.6-1.5,6-3.75,2.55-2.25,5.4-5.85,9.9-11.4a87.31,87.31,0,0,0,5.24-8.55,8.84,8.84,0,0,0,.91-5.1c-.45-1.2-1.66-3.15-3.6-3.15C224.4,70.6,221.55,72.7,217.35,77.65Z"/><path class="cls-2" d="M310.34,99.55c1.5-2.55,3.45-2.25,3.45,1,0,5.1-5.1,15-17.25,15-7.8,0-14.25-3.75-21.6-8.85-1.65-1.2-2.85-.6-4.05,1-1.35,1.35-5.09,4.5-6.9,6a4,4,0,0,1-4.65.15,3.84,3.84,0,0,1-1.34-2.7c0-2.55,4.05-7.65,5.25-9a3.64,3.64,0,0,0,.89-2.85c0-5.4,3.3-8.1,5.4-8.1a4.8,4.8,0,0,1,2.85.75,1.74,1.74,0,0,0,2.55-.3c5.4-5.55,11.1-11.85,15.9-16.8,1.5-1.5,1.2-2.1-.6-2.25-6.15-.6-10.5-1-12.3-1a3.38,3.38,0,0,0-3.3,2.1c-.9,1.65-1.05,3.9.3,7.2.75,2.1-.9,2.4-2.85,1.35-1.95-.9-4.95-5-6-6.75a5.84,5.84,0,0,1,.3-7.2c3.3-3.9,5.1-5.7,9.9-5.7,3.6,0,7.2.6,14.25,1.5a58.14,58.14,0,0,0,7.8.6,7.35,7.35,0,0,0,4.05-1,5.55,5.55,0,0,1,3.6-1.35A9.4,9.4,0,0,1,313,65.8c2.1,2.55.6,4.65-.3,6s-1.8,2.25-2.85,2.25c-.6,0-1.95-.3-2.7-.3-1.5,0-3.75,1-6.45,3.75-2.1,2.1-12.9,13.5-17.55,18.9-1.2,1.35-1.8,2.4-.9,3.15,2.7,2.55,9.75,6.9,15.6,6.9S307.34,104.65,310.34,99.55Z"/></svg>