<?xml version="1.0" standalone="no"?>
<!DOCTYPE svg PUBLIC "-//W3C//DTD SVG 20010904//EN"
 "http://www.w3.org/TR/2001/REC-SVG-20010904/DTD/svg10.dtd">
<svg version="1.0" xmlns="http://www.w3.org/2000/svg"
 width="512.000000pt" height="512.000000pt" viewBox="0 0 512.000000 512.000000"
 preserveAspectRatio="xMidYMid meet">
<metadata>
Created by potrace 1.11, written by Peter Selinger 2001-2013
</metadata>
<g transform="translate(0.000000,512.000000) scale(0.100000,-0.100000)"
fill="#000000" stroke="none">
<path d="M2495 4170 c-135 -15 -239 -40 -255 -60 -10 -13 -92 -40 -121 -40
-41 0 -115 -38 -101 -52 8 -8 15 -8 24 -1 18 14 58 23 58 12 0 -4 -8 -13 -17
-18 -10 -5 -27 -27 -38 -48 -11 -21 -28 -47 -38 -58 -10 -11 -26 -36 -34 -55
-9 -19 -23 -43 -31 -52 -14 -17 -51 -136 -59 -195 -7 -45 -23 -42 -24 5 -1 32
-3 30 -10 -18 -10 -58 -5 -166 12 -265 14 -83 51 -205 61 -205 5 0 8 -8 7 -17
-2 -10 2 -28 9 -40 7 -13 11 -23 8 -23 -3 0 8 -25 25 -56 16 -31 29 -65 29
-75 0 -10 5 -19 10 -19 6 0 10 -7 10 -15 0 -8 7 -15 16 -15 9 0 14 -5 12 -12
-3 -7 7 -22 20 -35 14 -13 22 -29 18 -38 -3 -9 0 -15 10 -15 10 0 14 -6 11
-14 -3 -8 -1 -17 6 -19 9 -3 9 -8 1 -18 -103 -135 -408 -509 -414 -509 -6 0
-11 342 -12 843 l-3 842 -25 45 c-14 24 -44 58 -68 75 -42 29 -49 30 -162 33
-109 3 -121 2 -167 -22 -64 -32 -109 -97 -118 -169 -3 -29 -5 -650 -3 -1382
l3 -1330 23 -37 c32 -51 85 -95 129 -107 21 -6 79 -11 128 -11 101 0 150 17
198 66 58 58 62 73 65 281 l4 192 51 59 c29 32 96 109 150 170 54 62 102 112
107 112 8 0 48 -67 308 -510 119 -203 161 -262 214 -297 82 -56 121 -66 274
-71 158 -5 191 4 219 58 34 66 25 91 -117 311 -73 113 -167 258 -208 322 -104
164 -173 270 -274 425 -47 73 -86 141 -86 150 0 9 14 32 31 50 l31 33 84 -125
c46 -69 84 -129 84 -133 0 -5 16 -28 35 -52 19 -24 35 -48 35 -52 0 -5 6 -9
14 -9 8 0 24 -16 36 -35 12 -20 27 -34 34 -32 6 2 22 27 37 55 35 73 96 144
117 138 21 -6 63 24 45 31 -15 5 -18 33 -4 33 4 0 26 18 47 41 22 22 57 50 79
61 22 11 66 40 98 64 31 24 61 44 66 44 4 0 42 22 84 50 42 27 80 50 86 50 5
0 25 14 43 30 18 17 38 30 45 30 7 0 13 5 13 10 0 6 7 10 15 10 8 0 15 5 15
10 0 21 -42 4 -87 -34 -12 -10 -39 -20 -60 -21 -50 -3 -162 -43 -187 -66 -11
-11 -26 -19 -33 -19 -27 0 -11 18 39 45 29 16 67 43 85 61 18 18 62 47 98 63
36 17 68 39 72 48 3 10 15 25 26 34 30 25 16 53 -23 45 -34 -6 -43 13 -10 21
12 3 20 14 20 27 0 18 19 31 101 70 55 27 106 54 112 60 20 18 117 80 192 122
44 25 71 47 73 59 2 11 14 28 25 38 21 16 21 18 5 31 -10 7 -18 25 -18 40 0
31 -9 32 -60 6 -22 -11 -44 -20 -50 -20 -5 0 -29 -8 -53 -19 -87 -38 -106 -43
-149 -36 -24 4 -49 10 -56 14 -20 11 28 40 89 54 30 7 51 18 54 28 8 25 53 51
89 53 20 1 34 9 41 23 20 39 36 51 84 64 43 11 47 14 43 39 -3 21 1 28 17 33
12 3 25 16 30 29 8 22 9 22 23 -12 44 -105 42 -308 -3 -375 -4 -5 -10 -25 -14
-43 -3 -18 -11 -30 -16 -26 -5 3 -42 -25 -82 -61 -39 -37 -92 -81 -117 -98
-77 -53 -135 -99 -143 -113 -5 -8 -61 -41 -126 -73 -119 -60 -185 -106 -176
-121 5 -8 61 16 75 31 3 3 21 13 40 22 19 9 60 33 90 52 30 19 71 43 91 54 20
11 49 31 65 44 16 13 45 32 64 42 19 10 50 34 69 54 20 20 37 35 39 33 2 -2 6
-1 10 2 3 3 0 6 -6 6 -7 0 -12 5 -12 11 0 6 7 8 16 5 10 -4 13 -2 8 6 -5 8 -2
9 10 5 9 -4 15 -3 12 2 -3 5 10 18 29 30 42 24 44 19 8 -28 -41 -55 -45 -59
-150 -164 -67 -68 -87 -93 -64 -80 38 21 175 161 256 263 44 55 54 75 49 94
-3 15 4 44 21 80 17 36 24 63 20 77 -5 14 -3 19 3 15 18 -11 25 15 7 27 -11 9
-18 33 -21 82 -8 106 -33 184 -93 289 -12 21 -20 45 -17 52 3 7 0 16 -5 20 -6
3 -9 14 -6 24 3 13 0 16 -14 13 -22 -6 -24 5 -5 30 13 17 36 23 36 10 0 -5 16
-25 35 -45 19 -20 35 -47 35 -60 0 -13 11 -43 25 -67 14 -23 25 -50 25 -59 0
-12 3 -13 12 -4 8 8 6 23 -10 62 -24 58 -13 66 20 15 21 -31 38 -45 38 -30 0
9 -97 146 -141 200 -23 27 -59 63 -80 80 -29 22 -41 39 -45 67 -4 22 -18 48
-35 64 -27 26 -33 27 -106 24 -108 -5 -146 -4 -233 8 -130 17 -316 -39 -431
-129 -42 -33 -49 -35 -49 -15 0 7 -8 16 -19 19 -10 2 -24 18 -32 36 -8 17 -17
31 -21 31 -3 0 -4 8 -1 18 5 20 -16 46 -103 124 -50 46 -69 57 -110 63 -27 4
-56 13 -64 20 -14 11 -29 15 -101 28 -13 3 -55 1 -94 -3z m-75 -60 c0 -8 -49
-20 -81 -20 -11 0 -19 5 -19 10 0 6 10 10 23 10 12 0 28 4 36 9 15 10 41 4 41
-9z m335 -13 c11 -5 41 -27 68 -49 27 -21 53 -38 58 -38 5 0 27 -39 50 -87 22
-49 47 -100 55 -115 19 -36 19 -54 -1 -38 -8 7 -15 19 -15 27 0 22 -66 108
-108 141 -55 43 -188 112 -216 112 -26 0 -104 15 -170 32 -38 10 -39 21 -1 31
32 9 258 -4 280 -16z m-608 -119 c-34 -56 -187 -218 -187 -199 0 43 108 183
180 233 40 28 41 21 7 -34z m354 35 c11 -11 10 -13 -1 -13 -8 -1 -73 -9 -145
-19 -71 -11 -131 -18 -133 -16 -9 8 15 39 38 49 38 15 225 15 241 -1z m283
-65 c50 -51 93 -87 76 -63 -8 11 -21 26 -29 33 -8 6 -10 12 -5 12 21 0 90 -69
109 -109 11 -22 23 -41 26 -41 4 0 5 -15 3 -32 -1 -18 -3 -36 -3 -40 -2 -22
-24 0 -77 80 -32 48 -80 109 -106 135 -26 26 -48 50 -48 52 0 15 27 1 54 -27z
m1061 -15 c26 -29 33 -53 15 -53 -6 0 -14 8 -17 18 -10 25 -29 42 -47 42 -9 0
-16 5 -16 10 0 20 40 9 65 -17z m-1340 -1 c-6 -5 -49 -26 -98 -47 -48 -21 -92
-44 -98 -52 -6 -7 -17 -13 -24 -13 -7 0 -29 -12 -50 -26 -58 -39 -115 -60
-125 -44 -8 13 7 76 24 98 27 36 134 69 164 51 13 -8 30 -4 72 15 51 23 157
37 135 18z m1135 -12 c0 -5 -9 -10 -20 -10 -11 0 -20 5 -20 10 0 6 9 10 20 10
11 0 20 -4 20 -10z m-360 -65 c-28 -12 -60 -29 -70 -38 -22 -18 -55 -37 -67
-37 -4 0 3 8 17 18 14 9 37 28 51 41 28 27 87 50 108 43 7 -3 -10 -15 -39 -27z
m-550 5 c9 0 29 -13 44 -29 26 -27 27 -30 10 -38 -22 -11 -124 -5 -124 7 0 4
7 24 16 45 11 28 18 35 27 26 6 -6 18 -11 27 -11z m750 0 c0 -5 -7 -10 -15
-10 -8 0 -36 -10 -62 -21 -27 -12 -59 -27 -73 -33 -14 -6 -38 -21 -53 -33 -30
-24 -103 -50 -113 -40 -9 9 14 35 37 42 11 4 47 22 81 41 33 19 78 37 99 40
22 4 42 11 45 15 7 12 54 11 54 -1z m-970 -19 c0 -9 -11 -17 -226 -172 -159
-114 -164 -116 -181 -93 -20 27 -17 90 5 98 9 3 37 18 62 32 25 14 55 28 66
29 18 2 178 75 234 106 20 11 40 11 40 0z m1120 -21 c0 -5 -7 -10 -15 -10 -8
0 -15 5 -15 10 0 6 7 10 15 10 8 0 15 -4 15 -10z m-1556 -47 c-3 -16 -10 -40
-16 -55 -6 -15 -7 -44 -4 -64 7 -35 -16 -128 -34 -139 -5 -3 -19 0 -30 7 -19
11 -24 10 -41 -11 -70 -86 -3 134 71 233 47 62 64 71 54 29z m1835 -9 c25 -32
26 -43 5 -51 -23 -8 -77 46 -63 64 17 20 35 16 58 -13z m-1043 -36 c33 -37 57
-85 49 -98 -7 -12 -94 -44 -101 -37 -3 3 0 15 6 27 10 18 9 25 -4 38 -15 15
-16 14 -16 -10 0 -15 -7 -29 -16 -32 -24 -9 -29 0 -16 27 6 12 20 43 32 70 11
26 24 47 29 47 4 0 21 -15 37 -32z m-91 12 c-3 -5 -11 -10 -16 -10 -6 0 -7 5
-4 10 3 6 11 10 16 10 6 0 7 -4 4 -10z m905 -46 c0 -12 -35 -33 -56 -34 -11 0
-38 -13 -60 -29 -21 -16 -49 -32 -62 -36 -23 -7 -23 -6 -5 14 9 12 21 21 25
21 4 0 33 16 65 35 53 32 93 44 93 29z m190 -34 c13 -9 13 -11 0 -20 -22 -14
-50 -12 -50 4 0 12 13 23 30 25 3 0 12 -4 20 -9z m-140 -29 c0 -5 -15 -14 -32
-21 -18 -7 -42 -16 -53 -20 -54 -22 -106 -40 -115 -40 -24 0 -6 17 41 39 96
45 159 62 159 42z m205 -43 c-3 -7 -22 -14 -42 -16 -20 -1 -42 -7 -49 -13 -7
-6 -21 -9 -31 -7 -11 3 2 12 37 25 63 25 92 29 85 11z m-1371 -23 c-4 -8 -10
-15 -15 -15 -4 0 -20 -12 -35 -27 -15 -16 -55 -46 -88 -68 -41 -27 -60 -47
-58 -58 2 -9 -1 -17 -6 -17 -5 0 -27 -17 -49 -38 -22 -21 -61 -48 -86 -60 -25
-12 -48 -26 -52 -32 -3 -6 -11 -8 -16 -5 -5 4 -9 -1 -9 -9 0 -24 -18 -28 -30
-6 -13 24 2 60 26 60 16 0 94 77 94 92 0 16 -29 7 -58 -17 -34 -28 -60 -32
-68 -10 -8 19 15 48 32 41 6 -2 20 2 31 9 10 8 24 15 31 15 8 0 27 9 43 21 29
20 67 20 54 -1 -4 -6 1 -7 12 -4 41 13 61 27 72 50 8 17 19 24 40 24 16 0 37
8 47 18 43 43 99 67 88 37z m1420 -19 c18 -39 19 -46 8 -46 -5 0 -16 18 -25
40 -19 49 -6 53 17 6z m-1049 14 c-3 -5 -10 -10 -16 -10 -5 0 -9 5 -9 10 0 6
7 10 16 10 8 0 12 -4 9 -10z m-975 -121 c0 -5 -10 -9 -21 -9 -18 0 -19 2 -9
15 12 15 30 12 30 -6z m1440 -69 c0 -5 -5 -10 -11 -10 -5 0 -7 5 -4 10 3 6 8
10 11 10 2 0 4 -4 4 -10z m-1444 -34 c7 -8 25 -36 39 -62 19 -36 32 -48 51
-50 34 -4 37 -8 29 -33 -8 -26 -25 -28 -26 -3 -1 11 -4 8 -8 -8 -9 -32 -42
-33 -56 -2 -5 12 -13 22 -17 22 -5 0 -8 10 -8 23 0 13 -4 27 -9 33 -10 11 -24
94 -15 94 3 0 12 -6 20 -14z m809 -6 c-3 -5 -11 -10 -16 -10 -6 0 -7 5 -4 10
3 6 11 10 16 10 6 0 7 -4 4 -10z m-697 -29 c3 -10 0 -12 -11 -8 -9 3 -18 -1
-22 -10 -4 -12 -9 -13 -17 -5 -8 8 -8 15 2 27 15 18 41 16 48 -4z m622 -9 c0
-8 -80 -52 -95 -52 -15 0 21 33 50 46 36 16 45 17 45 6z m543 1 c-7 -2 -19 -2
-25 0 -7 3 -2 5 12 5 14 0 19 -2 13 -5z m-43 -13 c0 -5 -7 -10 -16 -10 -8 0
-12 5 -9 10 3 6 10 10 16 10 5 0 9 -4 9 -10z m-250 -122 c0 -23 -43 -34 -110
-27 -36 3 -51 7 -35 8 17 1 46 9 65 16 45 17 80 18 80 3z m-973 -30 c-3 -8 -6
-5 -6 6 -1 11 2 17 5 13 3 -3 4 -12 1 -19z m1578 -58 c-3 -5 -10 -10 -16 -10
-5 0 -9 5 -9 10 0 6 7 10 16 10 8 0 12 -4 9 -10z m-62 -7 c4 -4 -14 -17 -40
-30 -30 -14 -51 -19 -57 -13 -12 12 -11 13 39 33 47 19 49 19 58 10z m-1153
-81 c0 -11 -46 -32 -54 -25 -3 4 4 12 17 19 27 15 37 16 37 6z m771 -32 c-52
-44 -152 -92 -166 -80 -9 7 -20 4 -36 -10 -14 -11 -18 -19 -11 -20 7 0 10 -5
7 -10 -4 -6 -16 -8 -28 -5 -15 4 -18 3 -9 -3 10 -7 1 -17 -38 -41 -52 -32 -84
-37 -36 -6 14 10 23 21 20 26 -3 5 3 6 13 2 16 -6 16 -5 5 10 -12 14 -7 20 35
51 26 20 53 36 60 36 7 0 28 9 48 20 20 11 50 20 68 20 19 0 44 10 62 24 42
34 48 20 6 -14z m-853 -71 c-2 -6 -8 -10 -13 -10 -5 0 -11 4 -13 10 -2 6 4 11
13 11 9 0 15 -5 13 -11z m-48 -44 c0 -6 -9 -22 -20 -35 -16 -18 -20 -20 -20
-7 0 10 5 17 11 17 7 0 8 11 3 32 -6 29 -5 31 10 19 9 -7 16 -19 16 -26z m-40
-1 c0 -8 -4 -14 -10 -14 -5 0 -10 2 -10 4 0 2 -3 12 -6 20 -5 12 -2 15 10 10
9 -3 16 -12 16 -20z m765 16 c3 -5 1 -10 -4 -10 -6 0 -11 5 -11 10 0 6 2 10 4
10 3 0 8 -4 11 -10z m-808 -42 c-3 -8 -6 -5 -6 6 -1 11 2 17 5 13 3 -3 4 -12
1 -19z m643 -108 c0 -5 -7 -10 -16 -10 -9 0 -29 -10 -46 -21 -28 -20 -29 -20
-18 -2 19 30 80 56 80 33z m349 -197 c-20 -25 -67 -65 -104 -88 -44 -28 -67
-53 -60 -65 3 -5 1 -10 -4 -10 -6 0 -11 -4 -11 -10 0 -5 9 -10 20 -10 12 0 17
5 14 14 -6 17 48 51 96 61 l35 7 -37 -26 c-20 -14 -41 -26 -45 -26 -5 0 -19
-17 -32 -38 -23 -38 -69 -72 -97 -72 -8 0 -14 -6 -14 -13 0 -15 -76 -90 -134
-133 -35 -26 -39 -27 -51 -11 -25 34 -81 101 -126 151 -61 67 -69 93 -34 106
15 6 31 7 36 4 5 -3 62 11 125 31 105 33 153 39 114 15 -8 -5 -11 -12 -8 -16
4 -3 41 19 82 50 81 61 124 76 64 23 -55 -48 -50 -80 5 -37 27 22 168 110 175
110 3 0 -2 -8 -9 -17z m-244 -353 c-46 -47 -80 -68 -91 -57 -6 6 66 74 104 99
44 29 38 10 -13 -42z m-118 -127 c-8 -16 -20 -39 -26 -53 -6 -14 -9 -17 -6 -6
3 10 1 24 -5 31 -15 18 8 55 33 55 17 0 17 -2 4 -27z"/>
<path d="M2840 3670 c0 -5 5 -10 10 -10 6 0 10 5 10 10 0 6 -4 10 -10 10 -5 0
-10 -4 -10 -10z"/>
<path d="M2820 2330 c-8 -4 -34 -16 -57 -26 -42 -17 -57 -34 -29 -34 8 0 33 9
57 19 50 23 55 21 39 -9 -17 -33 -9 -32 44 2 47 31 47 32 25 41 -34 13 -62 16
-79 7z"/>
<path d="M3335 4045 c24 -8 114 -11 109 -3 -3 4 -31 8 -62 7 -31 0 -52 -2 -47
-4z"/>
<path d="M3238 4023 c6 -2 18 -2 25 0 6 3 1 5 -13 5 -14 0 -19 -2 -12 -5z"/>
<path d="M3528 4023 c6 -2 18 -2 25 0 6 3 1 5 -13 5 -14 0 -19 -2 -12 -5z"/>
<path d="M3147 3983 c-20 -14 -37 -30 -37 -35 0 -5 10 0 21 11 12 11 35 27 53
35 17 9 24 16 16 16 -8 0 -32 -12 -53 -27z"/>
<path d="M3595 4000 c27 -12 35 -12 35 0 0 6 -12 10 -27 9 -25 0 -26 -1 -8 -9z"/>
<path d="M1990 3945 c-20 -24 -6 -28 15 -5 10 11 13 20 8 20 -6 0 -16 -7 -23
-15z"/>
<path d="M1940 3925 c0 -8 5 -15 10 -15 6 0 10 7 10 15 0 8 -4 15 -10 15 -5 0
-10 -7 -10 -15z"/>
<path d="M1926 3890 c-2 -8 -7 -33 -11 -55 -4 -22 -13 -50 -21 -62 -8 -14 -10
-24 -4 -28 5 -3 14 4 19 17 33 85 40 112 31 127 -7 14 -9 14 -14 1z"/>
<path d="M4160 3496 c0 -22 3 -27 11 -19 8 8 8 16 0 30 -9 16 -10 14 -11 -11z"/>
<path d="M4183 3410 c0 -25 2 -35 4 -22 2 12 2 32 0 45 -2 12 -4 2 -4 -23z"/>
<path d="M4120 3378 c0 -13 5 -30 10 -38 7 -11 10 -5 10 23 0 20 -4 37 -10 37
-5 0 -10 -10 -10 -22z"/>
<path d="M4181 3264 c0 -11 3 -14 6 -6 3 7 2 16 -1 19 -3 4 -6 -2 -5 -13z"/>
<path d="M4165 3199 c-4 -6 -5 -12 -2 -15 2 -3 7 2 10 11 7 17 1 20 -8 4z"/>
<path d="M3718 3163 c7 -3 16 -2 19 1 4 3 -2 6 -13 5 -11 0 -14 -3 -6 -6z"/>
<path d="M4117 3083 l-18 -38 20 25 c18 22 28 50 18 50 -2 0 -11 -17 -20 -37z"/>
<path d="M3652 2578 c-26 -24 -49 -45 -52 -48 -3 -3 -20 -18 -38 -33 -19 -15
-31 -27 -27 -27 8 0 146 113 164 134 25 30 1 16 -47 -26z"/>
<path d="M3558 2583 c7 -3 16 -2 19 1 4 3 -2 6 -13 5 -11 0 -14 -3 -6 -6z"/>
<path d="M3451 2420 c-62 -45 -74 -57 -46 -42 37 19 120 82 109 82 -6 0 -34
-18 -63 -40z"/>
<path d="M3316 2335 c-25 -19 -9 -19 24 0 14 8 19 14 10 14 -8 0 -24 -6 -34
-14z"/>
<path d="M3210 2295 c0 -8 -11 -22 -25 -31 -14 -9 -24 -19 -21 -21 3 -3 44 17
90 44 9 6 -13 23 -31 23 -7 0 -13 -7 -13 -15z"/>
<path d="M3028 2201 c-43 -20 -55 -30 -46 -39 8 -8 23 -3 57 20 57 39 55 37
50 42 -2 2 -30 -9 -61 -23z"/>
</g>
</svg>
